<?xml version="1.0" standalone="no"?>
<!DOCTYPE svg PUBLIC "-//W3C//DTD SVG 20010904//EN"
 "http://www.w3.org/TR/2001/REC-SVG-20010904/DTD/svg10.dtd">
<svg version="1.0" xmlns="http://www.w3.org/2000/svg"
 width="412.000000pt" height="366.000000pt" viewBox="0 0 412.000000 366.000000"
 preserveAspectRatio="xMidYMid meet">

<g transform="translate(0.000000,366.000000) scale(0.100000,-0.100000)"
fill="#f5f5f5" stroke="none">
<path d="M372 2638 l3 -703 98 -3 97 -3 0 706 0 705 -100 0 -100 0 2 -702z"/>
<path d="M1305 3255 l0 -85 92 0 c50 0 94 -4 97 -9 4 -5 -32 -45 -79 -89 l-85
-79 0 -532 0 -531 353 2 352 3 3 88 3 87 -256 0 -255 0 2 263 3 262 253 3 252
2 0 85 0 85 -182 0 -183 0 -70 -71 -70 -70 -3 238 c-1 131 0 243 2 250 4 10
63 13 256 13 l250 0 0 85 0 85 -367 0 -368 0 0 -85z"/>
<path d="M2660 3255 l0 -85 95 0 c52 0 95 -3 95 -8 0 -4 -36 -43 -80 -87 l-80
-80 0 -532 0 -533 100 0 100 0 2 618 3 617 235 0 235 0 3 -262 2 -263 -131 0
-131 0 -43 -47 c-23 -27 -54 -62 -69 -80 l-27 -32 200 -204 201 -204 0 -72 0
-71 100 0 100 0 0 98 0 99 -170 162 c-104 100 -170 170 -170 182 0 17 8 19 83
19 l82 0 88 88 87 87 0 250 0 250 -88 88 -87 87 -368 0 -367 0 0 -85z"/>
<path d="M924 1180 c-109 -22 -232 -117 -284 -220 -76 -151 -63 -318 35 -448
51 -67 111 -111 193 -142 75 -28 86 -18 79 72 -7 79 -15 96 -78 163 -58 62
-79 108 -79 175 0 57 35 150 55 150 8 0 23 -32 36 -76 24 -80 41 -100 96 -110
35 -7 99 10 126 34 23 20 22 53 -5 134 -12 37 -18 71 -14 75 12 12 76 -29 107
-68 76 -96 77 -151 7 -249 -29 -40 -59 -82 -65 -94 -15 -25 -18 -202 -3 -211
5 -3 37 8 70 26 206 109 288 347 192 553 -83 177 -276 274 -468 236z"/>
<path d="M1860 1179 c-119 -23 -245 -123 -297 -236 -74 -161 -39 -349 87 -473
49 -49 150 -110 179 -110 18 0 12 62 -12 121 -13 30 -44 84 -68 120 -58 81
-73 121 -73 184 0 157 120 255 296 243 127 -10 215 -80 238 -193 15 -73 -4
-140 -66 -232 -82 -122 -112 -198 -90 -229 11 -15 17 -14 72 12 74 36 164 125
197 195 120 254 -29 547 -303 599 -61 12 -97 11 -160 -1z"/>
<path d="M2792 1179 c-165 -32 -313 -192 -331 -358 -23 -208 91 -386 292 -457
64 -23 68 -15 74 182 5 147 4 174 -11 202 -21 41 -70 72 -114 72 -45 0 -109
-35 -133 -73 l-21 -32 6 52 c14 141 112 215 286 217 114 1 131 -5 159 -54 13
-23 29 -44 36 -46 7 -3 31 6 53 21 30 19 50 26 78 23 l39 -3 3 -74 c3 -83 -2
-91 -59 -91 -23 0 -42 7 -54 20 -29 32 -80 27 -121 -14 -30 -30 -34 -40 -34
-87 0 -30 7 -108 15 -174 8 -66 15 -123 15 -126 0 -19 38 -16 86 7 166 78 263
258 237 438 -34 241 -262 402 -501 355z"/>
<path d="M1809 759 c-38 -38 -3 -99 64 -114 l27 -7 0 -144 c0 -121 2 -144 15
-144 13 0 15 22 15 140 0 118 2 140 15 140 13 0 15 -22 15 -140 0 -118 2 -140
15 -140 13 0 15 22 15 139 l0 139 29 10 c65 23 93 89 53 125 -41 37 -90 7
-101 -61 -5 -28 -12 -38 -27 -40 -18 -3 -22 3 -27 38 -10 74 -63 104 -108 59z
m65 -31 c16 -22 22 -58 10 -58 -10 0 -49 23 -56 33 -8 13 8 47 22 47 5 0 16
-10 24 -22z m184 -2 c4 -20 -25 -56 -45 -56 -18 0 -16 45 3 65 19 19 38 15 42
-9z"/>
</g>
</svg>
